<svg width="38" height="34" viewBox="0 0 38 34" fill="none" xmlns="http://www.w3.org/2000/svg">
<path d="M37.375 0.5H0.625C0.41875 0.5 0.25 0.66875 0.25 0.875V3.875C0.25 4.08125 0.41875 4.25 0.625 4.25H37.375C37.5812 4.25 37.75 4.08125 37.75 3.875V0.875C37.75 0.66875 37.5812 0.5 37.375 0.5ZM37.375 29.75H0.625C0.41875 29.75 0.25 29.9188 0.25 30.125V33.125C0.25 33.3312 0.41875 33.5 0.625 33.5H37.375C37.5812 33.5 37.75 33.3312 37.75 33.125V30.125C37.75 29.9188 37.5812 29.75 37.375 29.75ZM37.375 15.125H0.625C0.41875 15.125 0.25 15.2937 0.25 15.5V18.5C0.25 18.7062 0.41875 18.875 0.625 18.875H37.375C37.5812 18.875 37.75 18.7062 37.75 18.5V15.5C37.75 15.2937 37.5812 15.125 37.375 15.125Z" fill="white"/>
</svg>
